<?xml version="1.0" standalone="no"?>
<!DOCTYPE svg PUBLIC "-//W3C//DTD SVG 20010904//EN"
 "http://www.w3.org/TR/2001/REC-SVG-20010904/DTD/svg10.dtd">
<svg version="1.0" xmlns="http://www.w3.org/2000/svg"
 width="544.000000pt" height="208.000000pt" viewBox="0 0 544.000000 208.000000"
 preserveAspectRatio="xMidYMid meet">

<g transform="translate(0.000000,208.000000) scale(0.100000,-0.100000)"
fill="#000000" stroke="none">
<path d="M203 1150 c-67 -24 -107 -53 -143 -102 -64 -89 -61 -208 7 -288 45
-53 86 -78 193 -121 108 -43 144 -74 144 -124 0 -75 -82 -108 -211 -85 -37 6
-87 20 -110 30 l-41 18 -20 -81 c-12 -45 -19 -85 -16 -89 14 -22 153 -52 244
-53 226 -1 364 103 364 275 0 131 -71 207 -262 281 -83 31 -132 72 -132 107 1
31 16 54 47 70 31 17 150 15 212 -4 29 -8 54 -14 56 -12 10 11 43 154 37 160
-4 4 -34 14 -67 22 -84 22 -236 20 -302 -4z"/>
<path d="M3257 1053 c-4 -3 -7 -35 -7 -69 l0 -63 -42 -3 -43 -3 0 -75 0 -75
43 -3 42 -3 0 -158 c0 -186 14 -248 66 -297 41 -39 116 -59 189 -50 86 10 85
8 85 95 l0 76 -43 -3 c-31 -3 -49 2 -67 16 -24 20 -25 25 -28 171 l-3 150 73
3 73 3 0 75 0 75 -72 3 -73 3 0 69 0 70 -93 0 c-52 0 -97 -3 -100 -7z"/>
<path d="M975 915 c-22 -9 -57 -29 -78 -46 -39 -31 -43 -30 -49 21 -3 24 -6
25 -91 28 l-87 3 2 -458 3 -458 103 -3 102 -3 0 162 0 162 23 -21 c62 -58 175
-65 273 -17 102 50 156 147 162 292 7 151 -39 253 -141 317 -58 35 -158 45
-222 21z m91 -164 c93 -57 89 -277 -6 -326 -50 -26 -95 -19 -138 19 -37 34
-37 35 -40 123 -5 106 11 153 60 183 41 25 84 25 124 1z"/>
<path d="M1685 911 c-41 -18 -95 -72 -95 -94 0 -7 -4 -6 -10 3 -5 8 -10 34
-10 58 l0 43 -87 -3 c-84 -3 -88 -4 -87 -25 0 -13 1 -158 2 -323 l2 -300 99 0
99 0 4 188 c2 153 6 193 20 218 22 39 73 64 132 64 l46 0 0 95 0 95 -37 0
c-21 0 -56 -9 -78 -19z"/>
<path d="M2013 912 c-151 -54 -223 -160 -223 -328 0 -103 28 -175 94 -240 133
-130 382 -120 502 20 107 124 103 353 -7 466 -86 88 -247 124 -366 82z m176
-148 c87 -61 80 -303 -10 -349 -92 -48 -178 33 -179 170 0 81 15 128 51 165
24 24 39 30 73 30 23 0 52 -7 65 -16z"/>
<path d="M2522 668 l3 -253 29 -53 c69 -124 239 -149 349 -51 l45 39 6 -40 6
-40 91 0 92 0 -7 46 c-3 26 -6 172 -6 325 l0 279 -100 0 -100 0 0 -200 c0
-216 -7 -253 -51 -284 -35 -24 -91 -21 -118 8 -34 36 -40 83 -41 289 l0 187
-101 0 -100 0 3 -252z"/>
</g>
</svg>
